<svg width="23" height="24" viewBox="0 0 23 24" fill="none" xmlns="http://www.w3.org/2000/svg">
<g clip-path="url(#clip0_5071_432)">
<path d="M9.58209 0.707031C4.60442 0.707031 0.568359 4.74309 0.568359 9.72076C0.568359 14.6984 4.60442 18.7345 9.58209 18.7345C14.5598 18.7345 18.5958 14.6984 18.5958 9.72076C18.5958 4.74309 14.5598 0.707031 9.58209 0.707031ZM13.4753 6.77722L9.23804 12.6522C9.17882 12.7349 9.10075 12.8023 9.0103 12.8487C8.91985 12.8952 8.81963 12.9194 8.71794 12.9194C8.61625 12.9194 8.51603 12.8952 8.42558 12.8487C8.33513 12.8023 8.25706 12.7349 8.19784 12.6522L5.68888 9.17551C5.61243 9.06888 5.68888 8.91999 5.81966 8.91999H6.76329C6.96851 8.91999 7.16368 9.01858 7.28439 9.18759L8.71693 11.1754L11.8798 6.78929C12.0005 6.62229 12.1937 6.52169 12.4009 6.52169H13.3445C13.4753 6.52169 13.5518 6.67058 13.4753 6.77722Z" fill="url(#paint0_linear_5071_432)"/>
</g>
<defs>
<linearGradient id="paint0_linear_5071_432" x1="0.568359" y1="9.72076" x2="18.5958" y2="9.72076" gradientUnits="userSpaceOnUse">
<stop stop-color="#F8CB79"/>
<stop offset="1" stop-color="#BD8348"/>
</linearGradient>
<clipPath id="clip0_5071_432">
<rect width="23" height="23" fill="white" transform="translate(0 0.5)"/>
</clipPath>
</defs>
</svg>
