<svg width="326" height="88" viewBox="0 0 326 88" fill="none" xmlns="http://www.w3.org/2000/svg">
<g clip-path="url(#clip0_5071_747)">
<path d="M38.136 0C61.9708 0 84.8653 12.2293 84.8653 42.7396C84.8653 69.593 70.0622 86.4873 44.5967 86.4873C37.1947 86.4873 27.4727 85.9828 19.8833 85.9828C15.0533 85.9828 9.91028 86.3612 5.45673 86.3612C1.81891 86.3612 0 84.6593 0 82.516C0 77.7248 6.08422 77.6617 7.33839 69.5299C7.84038 65.5586 8.09138 54.2752 8.09138 40.7846C8.09138 31.2031 8.09138 23.5757 7.84038 20.4242C6.89995 9.14005 0.564737 9.58149 0.564737 4.28665C0.564737 1.89107 1.81891 0 5.45673 0C10.0985 0 15.1788 0.377572 19.8833 0.377572C26.7833 0.377572 31.3615 0 38.136 0ZM31.4243 60.0115C31.4243 70.602 33.3059 73.4382 39.9549 73.4382C54.507 73.4382 58.5213 57.9312 58.5213 45.3866C58.5213 27.0426 50.9946 12.2924 36.7563 12.2924C32.3027 12.2924 31.4242 15.8223 31.4242 23.4496L31.4243 60.0115Z" fill="#231F20"/>
<path d="M120.066 40.7846C120.066 29.8166 120.066 23.6388 119.689 20.4873C118.623 9.20312 110.218 10.2752 110.218 4.28665C110.218 1.82802 111.535 0 115.048 0C119.376 0 126.777 0.377572 131.607 0.377572C136.311 0.377572 140.451 0 145.03 0C148.731 0 149.922 1.89107 149.922 4.28665C149.922 9.5815 144.716 9.14006 143.712 20.4242C143.524 23.5758 143.399 36.8763 143.399 46.4586C143.399 69.2146 140.577 88 112.163 88C92.2794 88 85.3794 78.1663 85.3794 67.5127C85.3794 60.2637 89.7075 52.5102 98.5518 52.5102C105.514 52.5102 108.462 56.2924 108.462 60.7682C108.462 63.6044 106.204 67.2605 106.204 71.2949C106.204 74.1319 107.772 76.5905 111.347 76.5905C116.93 76.5905 120.066 70.2236 120.066 57.8682L120.066 40.7846Z" fill="#231F20"/>
<path d="M205.262 13.1745C205.262 9.3923 200.997 8.06879 200.997 4.09746C200.997 1.82801 202.879 0 206.642 0C209.653 0 214.545 0.377572 217.807 0.377572C220.943 0.377572 225.585 0.0630697 228.595 0.0630697C233.237 0.0630697 236.186 0.377572 236.186 4.41197C236.186 8.32105 230.979 9.32925 226.024 13.2375C220.316 17.7764 213.166 24.2695 204.008 35.2375C203.695 35.6159 203.255 36.0573 203.255 36.5618C203.255 36.8133 203.444 37.0655 204.071 37.3178C216.615 41.7306 223.139 53.0139 228.721 65.8739C230.791 70.9173 233.237 74.8255 236.186 77.4095C238.694 79.5528 240.137 79.8681 240.137 82.4529C240.137 85.6044 238.067 86.4873 235.872 86.4873C233.112 86.4873 224.958 86.1089 221.884 86.1089C216.239 86.1089 210.531 86.4873 208.461 86.4873C204.949 86.4873 202.691 84.5332 202.691 82.1376C202.691 79.742 204.133 78.6708 204.133 75.6446C204.133 68.0803 196.23 52.8247 187.826 52.8247C185.693 52.8247 184.312 54.4644 184.312 58.751V63.9197C184.312 69.7822 186.131 72.8084 188.139 75.5184C190.083 78.2293 192.78 79.679 192.78 82.516C192.78 85.163 190.648 86.4873 187.449 86.4873C182.243 86.4873 177.413 86.1089 172.771 86.1089C167.942 86.1089 162.924 86.4873 158.47 86.4873C154.833 86.4873 153.014 84.6593 153.014 82.516C153.014 77.7248 159.098 77.6618 160.352 69.5299C160.854 65.5586 161.105 54.2752 161.105 40.7846C161.105 31.2031 161.105 23.5758 160.854 20.4242C159.914 9.14006 153.578 9.5815 153.578 4.28666C153.578 1.89109 154.833 9.20592e-06 158.47 9.20592e-06C163.112 9.20592e-06 168.192 0.377581 172.897 0.377581C177.727 0.377581 182.807 9.20592e-06 187.073 9.20592e-06C190.648 9.20592e-06 191.965 1.82802 191.965 4.28666C191.965 8.00574 188.014 9.77069 186.445 13.8682C185.379 16.0745 184.061 20.3612 184.061 26.7904C184.061 35.4898 184.25 38.516 184.94 38.516C186.633 38.516 205.262 17.9025 205.262 13.1745Z" fill="#231F20"/>
<path d="M303.015 34.9633C299.928 33.981 291.073 33.156 280.489 32.5213C282.97 25.6984 284.809 19.5137 285.367 15.4644C286.953 3.956 276.499 4.21199 271.986 12.7113C268.956 18.4197 265.888 25.0273 263.058 31.687C250.612 31.2168 238.626 30.9992 232.504 31.0791C225.927 31.1649 222.8 41.6003 232.951 43.9209C236.798 44.8005 246.479 45.3263 257.533 45.5358C254.303 54.193 251.888 61.8302 251.009 66.2582C249.038 76.1896 262.402 76.9779 264.169 67.4284C267.479 62.3913 271.564 54.2128 275.274 45.611C287.884 45.4879 299.315 44.9932 303.336 44.1778C312.824 42.2536 311.119 37.5416 303.015 34.9633Z" fill="url(#paint0_linear_5071_747)"/>
<path d="M308.541 0.243906C309.319 0.243906 309.665 0.487006 309.734 1.58153C309.82 2.79741 309.993 4.15274 309.993 4.88242C309.993 5.36862 309.647 5.59476 309.336 5.59476C308.87 5.59476 308.61 5.10818 308.42 4.63894C307.919 3.28399 307.625 2.91915 307.055 2.91915C306.795 2.91915 306.64 3.05822 306.536 3.28399C306.432 3.54442 306.38 3.92697 306.38 6.35911C306.38 8.51309 306.484 9.15609 306.587 9.78137C306.812 11.0843 307.867 11.1363 307.867 11.8833C307.867 12.2482 307.607 12.561 307.037 12.561C306.311 12.561 305.153 12.4917 304.392 12.4917C303.597 12.4917 302.439 12.561 301.695 12.561C301.143 12.561 300.866 12.2482 300.866 11.8833C300.866 11.1363 301.972 11.1016 302.162 9.7987C302.249 9.17343 302.249 8.54777 302.249 6.41113C302.249 3.92697 302.232 3.54442 302.127 3.28399C302.024 3.05822 301.851 2.91915 301.644 2.91915C301.073 2.91915 300.658 3.31866 300.209 4.674C300.054 5.14286 299.811 5.59476 299.362 5.59476C299.034 5.59476 298.688 5.36862 298.688 4.81269C298.688 4.06568 298.791 2.76273 298.878 1.58153C298.947 0.487006 299.293 0.243906 300.088 0.243906C301.609 0.243906 302.888 0.313254 304.306 0.313254C305.758 0.313254 307.037 0.243906 308.541 0.243906ZM319.553 9.19076C319.259 9.88576 318.896 10.8239 318.533 11.4838C318.273 11.9877 317.824 12.3526 317.236 12.3526C316.855 12.3526 316.614 12.0571 316.458 11.7273C316.129 11.067 314.885 8.1656 314.349 7.0364C314.159 6.67156 314.09 6.41113 314.004 6.41113C313.83 6.41113 313.71 7.57499 313.71 8.51309C313.71 9.13875 313.848 9.88576 314.142 10.3893C314.539 11.119 315.023 11.206 315.023 11.866C315.023 12.2482 314.833 12.561 314.211 12.561C313.433 12.561 313.156 12.4917 312.741 12.4917C312.24 12.4917 311.739 12.561 310.995 12.561C310.425 12.561 310.217 12.2482 310.217 11.8313C310.217 11.015 311.151 11.2234 311.393 9.39918C311.549 8.33934 311.652 6.02894 311.652 4.03099C311.652 1.96369 310.546 1.82462 310.546 0.93852C310.546 0.57368 310.771 0.243896 311.341 0.243896C311.773 0.243896 312.793 0.313245 313.329 0.313245C314.677 0.313245 315.023 0.382593 315.438 0.66075C315.801 0.90385 316.234 1.49446 316.458 1.92902C316.786 2.53696 317.755 4.67399 318.083 5.45568C318.152 5.57704 318.221 5.73346 318.325 5.73346C318.429 5.73346 318.533 5.64678 318.602 5.47302C318.792 4.96911 319.742 2.57165 320.071 1.9117C320.417 1.2167 320.606 0.921203 321.074 0.608755C321.454 0.382611 322.18 0.313263 323.407 0.313263C323.753 0.313263 324.324 0.243915 324.756 0.243915C325.326 0.243915 325.533 0.573698 325.533 0.973594C325.533 1.78996 324.479 2.12013 324.479 3.70085C324.479 6.01163 324.651 8.49577 324.79 9.41654C325.067 11.2407 326 10.9803 326 11.866C326 12.2482 325.81 12.561 325.222 12.561C324.496 12.561 323.493 12.4917 322.958 12.4917C322.18 12.4917 321.385 12.561 320.642 12.561C320.088 12.561 319.777 12.2832 319.777 11.8834C319.777 11.3101 320.279 11.2061 320.728 10.5284C320.831 10.4067 321.005 9.90312 321.005 9.29481C321.005 8.1136 320.883 6.5849 320.728 6.5849C320.537 6.5849 320.071 8.00955 319.553 9.19076Z" fill="#231F20"/>
</g>
<defs>
<linearGradient id="paint0_linear_5071_747" x1="228.113" y1="44.0575" x2="311.637" y2="36.5022" gradientUnits="userSpaceOnUse">
<stop offset="0.21514" stop-color="#F6C679"/>
<stop offset="1" stop-color="#B7804E"/>
</linearGradient>
<clipPath id="clip0_5071_747">
<rect width="326" height="88" fill="white"/>
</clipPath>
</defs>
</svg>
