<svg width="12" height="12" viewBox="0 0 12 12" fill="none" xmlns="http://www.w3.org/2000/svg">
<g id="envelope 1" clip-path="url(#clip0_7_180)">
<path id="Vector" d="M11.977 2.771L7.768 6.98C7.29869 7.44812 6.66287 7.71102 6 7.71102C5.33713 7.71102 4.70131 7.44812 4.232 6.98L0.023 2.771C0.016 2.85 0 2.9215 0 3V9C0.000793929 9.66279 0.264441 10.2982 0.73311 10.7669C1.20178 11.2356 1.8372 11.4992 2.5 11.5H9.5C10.1628 11.4992 10.7982 11.2356 11.2669 10.7669C11.7356 10.2982 11.9992 9.66279 12 9V3C12 2.9215 11.984 2.85 11.977 2.771Z" fill="white"/>
<path id="Vector_2" d="M7.061 6.273L11.628 1.7055C11.4068 1.33866 11.0947 1.03502 10.722 0.823865C10.3493 0.612712 9.92839 0.50117 9.5 0.5H2.5C2.07161 0.50117 1.65075 0.612712 1.27801 0.823865C0.905278 1.03502 0.593241 1.33866 0.372002 1.7055L4.939 6.273C5.22079 6.55366 5.60229 6.71124 6 6.71124C6.39771 6.71124 6.77922 6.55366 7.061 6.273Z" fill="white"/>
</g>
<defs>
<clipPath id="clip0_7_180">
<rect width="12" height="12" fill="white"/>
</clipPath>
</defs>
</svg>
