<svg width="65" height="65" viewBox="0 0 65 65" fill="none" xmlns="http://www.w3.org/2000/svg">
<rect width="64" height="64" fill="#FFEED7"/>
<mask id="mask0_5004_938" style="mask-type:luminance" maskUnits="userSpaceOnUse" x="8" y="8" width="49" height="49">
<path d="M31.1553 8.40041C31.3153 8.58412 31.4576 8.88634 31.6946 9.00486C32.4116 9.36634 32.6665 9.97078 32.7613 10.7056C32.9213 11.9678 33.5968 13.1589 33.3005 14.4923C33.2768 14.593 33.3065 14.7589 33.3776 14.8241C33.8931 15.2686 33.9287 15.9204 33.7983 16.436C33.6146 17.1649 34.219 17.5915 34.2428 18.2612C34.2783 19.3871 34.3079 20.5486 34.7109 21.6508C34.8294 21.9708 34.8353 22.3441 34.8235 22.6878C34.8116 23.4641 35.0842 24.1397 35.3865 24.8508C36.4531 23.8671 37.5435 23.0434 38.4028 22.03C40.1865 19.9263 42.3613 18.2197 44.2339 16.1989C44.5894 15.8137 45.0102 15.4878 45.425 15.1678C46.6161 14.2374 47.6768 14.1663 48.9213 14.8656C49.2235 15.2923 49.4842 15.6715 49.7213 16.0093V17.9174C48.8324 19.073 48.0146 20.2108 47.1198 21.2775C46.1776 22.3915 45.1761 23.4582 44.1687 24.513C43.0902 25.6389 42.0946 26.836 40.8502 27.8137C40.2872 28.2523 39.6353 28.8745 39.6116 29.87C40.9094 30.0537 42.219 30.3204 43.5405 30.4093C45.9939 30.5812 48.4472 30.6878 50.8176 31.4108C51.0368 31.4819 51.2916 31.4937 51.5168 31.4641C52.5598 31.3456 53.4605 31.8671 54.4146 32.116C54.8946 32.2404 55.4339 32.5426 55.7183 32.9278C56.299 33.7219 56.2457 34.6997 56.0976 35.6419C56.0739 35.7841 55.9079 35.9382 55.7716 36.033C54.942 36.5782 54.0294 37.0226 53.0398 36.9871C52.2339 36.9574 51.4279 36.9634 50.622 36.9634C49.8042 36.9634 48.9865 36.9634 48.1746 36.9337C46.1302 36.8567 44.0739 36.8271 42.0353 36.6137C41.2176 36.5249 40.5242 36.7323 39.7953 36.8034C39.7183 37.5086 40.0916 37.8819 40.4887 38.2493C40.8265 38.5693 41.1998 38.8597 41.4842 39.2212C42.6576 40.7026 43.8368 42.19 44.9153 43.7367C45.9287 45.1886 47.0428 46.5219 48.3109 47.7486C48.939 48.3589 49.4665 49.07 49.7924 49.8878C50.2961 51.1263 50.1302 52.2463 49.2116 53.2834C48.6783 53.8878 48.0739 54.2612 47.1139 54.4686C46.5865 54.196 45.8279 53.9589 45.2768 53.4789C44.3998 52.7145 43.6235 51.8315 42.8768 50.9367C41.1109 48.8271 39.3865 46.6819 37.6383 44.5545C37.5494 44.4478 37.3835 44.4063 37.1228 44.2523C37.1879 45.7041 37.1524 47.0374 37.3302 48.3293C37.6324 50.5278 37.3302 52.6552 36.8205 54.7649C36.4531 56.2819 34.6161 56.8389 33.4902 55.7486C32.3405 54.6286 31.5583 53.2182 31.1968 51.6834C30.7702 49.8819 30.5509 48.033 30.2961 46.19C30.0176 44.1693 29.8042 42.1426 29.5435 39.9797C29.2235 40.11 28.8324 40.1515 28.7672 40.3234C28.4353 41.1886 27.6828 41.6863 27.1139 42.3441C26.0472 43.5826 24.8027 44.6493 23.7716 45.9234C23.3035 46.4982 22.4976 46.8182 22.065 47.4108C21.4961 48.193 20.7316 48.7086 19.9672 49.1826C18.9302 49.8286 17.8042 50.3323 16.5065 50.2612C15.0546 50.1841 14.3435 49.3012 14.7405 47.9263C15.0013 47.0315 15.3035 46.1367 15.7065 45.2952C16.0028 44.673 16.4116 44.0686 16.8976 43.5767C17.265 43.2034 17.579 42.7945 17.9346 42.4271C18.7879 41.556 19.3509 40.4123 20.4294 39.7486C20.619 39.63 20.7435 39.4108 20.9035 39.2449C21.5968 38.5337 22.2605 37.7989 22.9953 37.1352C23.4398 36.7323 23.7479 36.2937 23.9672 35.7189C23.5405 35.3515 23.0902 35.3693 22.6516 35.3812C22.5094 35.3812 22.3672 35.393 22.2309 35.3812C22.059 35.3752 21.8813 35.3812 21.7094 35.3812C21.3479 35.3871 20.9924 35.3989 20.6724 35.2863C19.8783 35.0078 19.0783 35.0493 18.2842 34.9841C18.1539 34.9782 18.0176 34.9841 17.8872 34.9841C17.662 34.9841 17.4487 34.99 17.2413 34.9367C15.6057 34.5041 13.9405 34.196 12.2694 33.9649C11.0902 33.7989 10.219 33.1649 9.57312 32.2049C9.27682 31.7723 9.03386 31.31 8.76719 30.8715C9.06349 28.7026 9.05756 28.6967 10.6635 27.9145C10.9124 27.79 11.2087 27.713 11.4872 27.6952C11.7479 27.6774 12.0146 27.6834 12.2753 27.6834C12.6665 27.6834 13.0516 27.6952 13.425 27.636C15.8072 27.2626 18.1598 27.63 20.5065 27.9323C21.7094 28.0863 22.8887 28.2878 24.1924 28.1752C24.0679 27.956 23.985 27.7486 23.8546 27.5826C21.9761 25.2715 20.1509 22.9189 18.1953 20.6789C16.542 18.7826 15.0131 16.8034 13.5257 14.7767C12.7968 13.793 12.5539 12.8034 13.3065 11.7249C13.3361 11.6774 13.342 11.6123 13.3598 11.5589C13.7983 11.2745 14.2427 10.996 14.6576 10.7352C15.1494 10.8656 15.6116 10.9367 16.0324 11.1145C16.4531 11.2863 16.9213 11.4819 17.2235 11.8078C18.545 13.2537 19.7539 14.8063 21.1939 16.1515C21.3183 16.27 21.4368 16.4123 21.5198 16.5663C22.0057 17.4375 22.7405 18.1308 23.4457 18.7945C24.7198 19.9975 25.905 21.2715 27.0072 22.6345C27.2798 22.9723 27.5939 23.3634 28.1568 23.3752C28.2339 23.2152 28.3939 23.0493 28.3702 22.9189C28.0561 21.0937 27.8605 19.2567 27.742 17.4078C27.659 16.1219 27.3805 14.8537 27.3035 13.5678C27.2146 12.0508 27.3213 10.5337 27.9494 9.12338C28.6961 8.61967 29.4665 8.31152 30.3198 8.31152C31.1731 8.31152 30.8768 8.34115 31.1672 8.40634" fill="white"/>
</mask>
<g mask="url(#mask0_5004_938)">
<path d="M8.76141 8.30554H56.311V56.8448H8.76141V8.30554Z" fill="url(#paint0_linear_5004_938)"/>
</g>
<defs>
<linearGradient id="paint0_linear_5004_938" x1="55.7623" y1="31.4564" x2="8.34778" y2="31.4564" gradientUnits="userSpaceOnUse">
<stop stop-color="#F5C579"/>
<stop offset="0.2" stop-color="#F5C579"/>
<stop offset="1" stop-color="#B6804D"/>
</linearGradient>
</defs>
</svg>
