<svg width="20" height="20" viewBox="0 0 20 20" fill="none" xmlns="http://www.w3.org/2000/svg">
<rect width="20" height="20" fill="#F5F5F5"/>
<g clip-path="url(#clip0_0_1)">
<rect width="1920" height="3166" transform="translate(-1341 -941)" fill="white"/>
<rect width="289" height="50" transform="translate(-30 -15)" fill="#0A3755"/>
<path d="M13.6503 0H4.16699C2.79199 0 1.66699 1.125 1.66699 2.5V20H18.3337V4.71667L13.6503 0ZM11.667 2.5V6.66667H15.8337V10H4.16699V2.5H11.667ZM4.16699 12.5H5.80866C6.73366 12.5 7.48366 13.2417 7.48366 14.15C7.48366 15.0583 6.73366 15.8 5.80866 15.8H5.20866V17.4917H4.16699V12.4917V12.5ZM11.667 15.85C11.667 16.7583 10.9253 17.5 10.0003 17.5C9.77533 17.5 9.56699 17.5 9.37533 17.5H8.33366V12.5H9.37533C9.56699 12.5 9.77533 12.5 10.0003 12.5C10.9253 12.5 11.667 13.2417 11.667 14.15V15.8417V15.85ZM15.8337 13.5417H13.542V14.7667H15.0003V15.8083H13.542V17.5H12.5003V12.5H15.8337V13.5417ZM10.6253 14.1667V15.8333C10.6253 16.2083 10.3253 16.4583 10.0003 16.4583C9.88366 16.4583 9.64199 16.4583 9.37533 16.4583V13.5417C9.64199 13.5417 9.88366 13.5417 10.0003 13.5417C10.3253 13.5417 10.6253 13.7917 10.6253 14.1667ZM5.21699 14.7667V13.5417H5.80866C6.15033 13.5417 6.44199 13.825 6.44199 14.15C6.44199 14.475 6.15033 14.7583 5.80866 14.7583H5.21699V14.7667Z" fill="white"/>
</g>
<defs>
<clipPath id="clip0_0_1">
<rect width="1920" height="3166" fill="white" transform="translate(-1341 -941)"/>
</clipPath>
</defs>
</svg>
