<svg width="26" height="26" viewBox="0 0 26 26" fill="none" xmlns="http://www.w3.org/2000/svg">
<path d="M12.6404 5.12632C15.07 5.12632 15.3578 5.13697 16.3134 5.1796C17.2014 5.21867 17.6809 5.36787 18.0006 5.49219C18.4233 5.65559 18.7289 5.85451 19.045 6.17066C19.3647 6.49034 19.5601 6.79228 19.7234 7.21499C19.8478 7.53468 19.9969 8.01777 20.036 8.90226C20.0787 9.86135 20.0893 10.1491 20.0893 12.5752C20.0893 15.0049 20.0787 15.2926 20.036 16.2482C19.9969 17.1362 19.8478 17.6158 19.7234 17.9354C19.5601 18.3582 19.3611 18.6636 19.045 18.9797C18.7252 19.2995 18.4233 19.4948 18.0006 19.6583C17.6809 19.7825 17.1978 19.9317 16.3134 19.9707C15.3542 20.0134 15.0665 20.0241 12.6404 20.0241C10.2107 20.0241 9.923 20.0134 8.96747 19.9707C8.07943 19.9317 7.5999 19.7825 7.2802 19.6583C6.8575 19.4948 6.552 19.2958 6.23586 18.9797C5.91617 18.66 5.7208 18.3582 5.5574 17.9354C5.43307 17.6158 5.28388 17.1326 5.2448 16.2482C5.20219 15.2891 5.19153 15.0013 5.19153 12.5752C5.19153 10.1455 5.20219 9.85779 5.2448 8.90226C5.28388 8.01423 5.43307 7.53468 5.5574 7.21499C5.7208 6.79228 5.91972 6.4868 6.23586 6.17066C6.55556 5.85096 6.8575 5.65559 7.2802 5.49219C7.5999 5.36787 8.08299 5.21867 8.96747 5.1796C9.923 5.13697 10.2107 5.12632 12.6404 5.12632ZM12.6404 3.48877C10.1717 3.48877 9.86262 3.49943 8.89288 3.54205C7.92669 3.58468 7.26244 3.74097 6.68699 3.96476C6.08667 4.1992 5.57871 4.50824 5.07431 5.0162C4.56635 5.52061 4.25731 6.02856 4.02287 6.62533C3.79908 7.20433 3.64278 7.86503 3.60015 8.83122C3.55753 9.80452 3.54688 10.1136 3.54688 12.5823C3.54688 15.051 3.55753 15.3601 3.60015 16.3298C3.64278 17.296 3.79908 17.9603 4.02287 18.5358C4.25731 19.136 4.56635 19.644 5.07431 20.1484C5.57871 20.6528 6.08667 20.9654 6.68344 21.1963C7.26244 21.4201 7.92314 21.5764 8.88932 21.619C9.85907 21.6616 10.1681 21.6722 12.6369 21.6722C15.1056 21.6722 15.4147 21.6616 16.3844 21.619C17.3506 21.5764 18.0149 21.4201 18.5902 21.1963C19.187 20.9654 19.695 20.6528 20.1994 20.1484C20.7039 19.644 21.0164 19.136 21.2473 18.5393C21.4711 17.9603 21.6274 17.2995 21.67 16.3334C21.7127 15.3636 21.7233 15.0546 21.7233 12.5858C21.7233 10.1171 21.7127 9.80806 21.67 8.83833C21.6274 7.87214 21.4711 7.20788 21.2473 6.63244C21.0235 6.02856 20.7145 5.52061 20.2066 5.0162C19.7021 4.51179 19.1941 4.19921 18.5974 3.96831C18.0184 3.74453 17.3576 3.58823 16.3915 3.5456C15.4182 3.49943 15.1091 3.48877 12.6404 3.48877Z" fill="black"/>
<path d="M12.6408 7.91064C10.062 7.91064 7.96973 10.0029 7.96973 12.5818C7.96973 15.1606 10.062 17.2529 12.6408 17.2529C15.2197 17.2529 17.312 15.1606 17.312 12.5818C17.312 10.0029 15.2197 7.91064 12.6408 7.91064ZM12.6408 15.6118C10.9678 15.6118 9.61082 14.2548 9.61082 12.5818C9.61082 10.9087 10.9678 9.55174 12.6408 9.55174C14.3139 9.55174 15.6708 10.9087 15.6708 12.5818C15.6708 14.2548 14.3139 15.6118 12.6408 15.6118Z" fill="black"/>
<path d="M18.5863 7.72773C18.5863 8.33159 18.096 8.81824 17.4957 8.81824C16.8918 8.81824 16.4053 8.32805 16.4053 7.72773C16.4053 7.12386 16.8955 6.63721 17.4957 6.63721C18.096 6.63721 18.5863 7.12741 18.5863 7.72773Z" fill="black"/>
</svg>
