<svg width="55" height="55" viewBox="0 0 55 55" fill="none" xmlns="http://www.w3.org/2000/svg">
<g id="newspaper 1" clip-path="url(#clip0_10_215)">
<path id="Vector" d="M48.125 0H18.3333C14.5429 0 11.4583 3.08458 11.4583 6.875V13.75H0V46.9792C0 51.4021 3.59792 55 8.02083 55H46.9792C51.4021 55 55 51.4021 55 46.9792V6.875C55 3.08458 51.9154 0 48.125 0ZM11.4583 46.9792C11.4583 48.8744 9.91604 50.4167 8.02083 50.4167C6.12563 50.4167 4.58333 48.8744 4.58333 46.9792V18.3333H11.4583V46.9792ZM50.4167 46.9792C50.4167 48.8744 48.8744 50.4167 46.9792 50.4167H15.2671C15.7621 49.374 16.0417 48.2098 16.0417 46.9792V6.875C16.0417 5.61229 17.0706 4.58333 18.3333 4.58333H48.125C49.3877 4.58333 50.4167 5.61229 50.4167 6.875V46.9792ZM34.375 13.75H45.8333V18.3333H34.375V13.75ZM20.625 22.9167H45.8333V27.5H20.625V22.9167ZM20.625 32.0833H45.8333V36.6667H20.625V32.0833ZM20.625 41.25H45.8333V45.8333H20.625V41.25ZM29.7917 18.3333H20.625V9.16667H29.7917V18.3333Z" fill="#031B2B"/>
</g>
<defs>
<clipPath id="clip0_10_215">
<rect width="55" height="55" fill="white"/>
</clipPath>
</defs>
</svg>
