<svg width="12" height="12" viewBox="0 0 12 12" fill="none" xmlns="http://www.w3.org/2000/svg">
<path d="M2.67029e-05 3.11997C2.67029e-05 6.93997 5.06503 12 8.88003 12C9.71503 12 10.495 11.685 11.07 11.11L11.57 10.535C12.15 9.95497 12.15 8.97497 11.545 8.36997C11.53 8.35497 10.325 7.42997 10.325 7.42997C9.72503 6.85997 8.78003 6.85997 8.18503 7.42997L7.45503 8.01497C5.85503 7.33497 4.72003 6.19497 3.99003 4.53997L4.57003 3.80997C5.14503 3.21497 5.14503 2.26497 4.57003 1.66997C4.57003 1.66997 3.64503 0.464966 3.63003 0.449966C3.02503 -0.155034 2.04503 -0.155034 1.44003 0.449966L0.915028 0.904966C0.315027 1.49997 2.67029e-05 2.27997 2.67029e-05 3.11497V3.11997Z" fill="#0A3755"/>
</svg>
