<svg width="12" height="12" viewBox="0 0 12 12" fill="none" xmlns="http://www.w3.org/2000/svg">
<g clip-path="url(#clip0_1_81)">
<path d="M2.67029e-05 3.12C2.67029e-05 6.94 5.06503 12 8.88003 12C9.71503 12 10.495 11.685 11.07 11.11L11.57 10.535C12.15 9.955 12.15 8.975 11.545 8.37C11.53 8.355 10.325 7.43 10.325 7.43C9.72503 6.86 8.78003 6.86 8.18503 7.43L7.45503 8.015C5.85503 7.335 4.72003 6.195 3.99003 4.54L4.57003 3.81C5.14503 3.215 5.14503 2.265 4.57003 1.67C4.57003 1.67 3.64503 0.464996 3.63003 0.449996C3.02503 -0.155004 2.04503 -0.155004 1.44003 0.449996L0.915028 0.904996C0.315027 1.5 2.67029e-05 2.28 2.67029e-05 3.115V3.12Z" fill="white"/>
</g>
<defs>
<clipPath id="clip0_1_81">
<rect width="12" height="12" fill="white" transform="matrix(-1 0 0 1 12 0)"/>
</clipPath>
</defs>
</svg>
