<svg width="114" height="22" viewBox="0 0 114 22" fill="none" xmlns="http://www.w3.org/2000/svg">
<path d="M11.0903 0.837646L13.4477 8.09297H21.0764L14.9047 12.577L17.2621 19.8323L11.0903 15.3483L4.91859 19.8323L7.27598 12.577L1.10424 8.09297H8.73293L11.0903 0.837646Z" fill="#FC8F06"/>
<path d="M34.0903 0.837646L36.4477 8.09297H44.0764L37.9047 12.577L40.2621 19.8323L34.0903 15.3483L27.9186 19.8323L30.276 12.577L24.1042 8.09297H31.7329L34.0903 0.837646Z" fill="#FC8F06"/>
<path d="M57.0903 0.837646L59.4477 8.09297H67.0764L60.9047 12.577L63.2621 19.8323L57.0903 15.3483L50.9186 19.8323L53.276 12.577L47.1042 8.09297H54.7329L57.0903 0.837646Z" fill="#FC8F06"/>
<path d="M80.0903 0.837646L82.4477 8.09297H90.0764L83.9047 12.577L86.2621 19.8323L80.0903 15.3483L73.9186 19.8323L76.276 12.577L70.1042 8.09297H77.7329L80.0903 0.837646Z" fill="#FC8F06"/>
<path d="M103.09 0.837646L105.448 8.09297H113.076L106.905 12.577L109.262 19.8323L103.09 15.3483L96.9186 19.8323L99.276 12.577L93.1042 8.09297H100.733L103.09 0.837646Z" fill="#FC8F06"/>
</svg>
