<svg width="25" height="26" viewBox="0 0 25 26" fill="none" xmlns="http://www.w3.org/2000/svg">
<path d="M9.91759 20.335C16.7806 20.335 20.5345 14.649 20.5345 9.71818C20.5345 9.55669 20.5345 9.39591 20.5236 9.23586C21.2538 8.70765 21.8842 8.05362 22.3852 7.3044C21.7042 7.6063 20.9817 7.80421 20.242 7.89147C21.021 7.4252 21.604 6.69172 21.8825 5.82761C21.15 6.26228 20.3487 6.5686 19.513 6.73333C18.9505 6.13511 18.2064 5.73898 17.396 5.60624C16.5856 5.47351 15.7541 5.61157 15.0301 5.99906C14.3059 6.38655 13.7299 7.00186 13.3907 7.74979C13.0516 8.49771 12.9685 9.33655 13.1542 10.1365C11.6707 10.0621 10.2194 9.67653 8.89452 9.00489C7.56967 8.33325 6.40085 7.39053 5.46394 6.23791C4.98678 7.05936 4.84063 8.03178 5.05526 8.9572C5.26989 9.8826 5.82915 10.6914 6.61918 11.219C6.02534 11.2016 5.44442 11.0414 4.9256 10.7519V10.7992C4.92584 11.6608 5.22406 12.4956 5.76969 13.1623C6.31531 13.829 7.07476 14.2864 7.91919 14.4571C7.36985 14.6068 6.79347 14.6288 6.23434 14.521C6.47288 15.2624 6.93712 15.9107 7.56215 16.3753C8.18718 16.8399 8.94178 17.0976 9.72044 17.1123C8.9468 17.7205 8.06083 18.17 7.11326 18.4354C6.16568 18.7008 5.17508 18.7767 4.19812 18.659C5.90455 19.754 7.89003 20.3348 9.91759 20.3321" fill="black"/>
</svg>
